<?xml version="1.0" encoding="UTF-8" standalone="no"?>
<!DOCTYPE svg PUBLIC "-//W3C//DTD SVG 1.1//EN" "http://www.w3.org/Graphics/SVG/1.1/DTD/svg11.dtd">
<svg width="100%" height="100%" viewBox="0 0 296 296" version="1.1" xmlns="http://www.w3.org/2000/svg" xmlns:xlink="http://www.w3.org/1999/xlink" xml:space="preserve" xmlns:serif="http://www.serif.com/" style="fill-rule:evenodd;clip-rule:evenodd;stroke-linejoin:round;stroke-miterlimit:2;">
    <g transform="matrix(1,0,0,1,-1093.42,-352.87)">
        <g transform="matrix(14.7638,0,0,14.7638,1063.9,323.342)">
            <path d="M12,2C17.486,2 22,6.514 22,12C22,17.486 17.486,22 12,22C6.514,22 2,17.486 2,12C2,6.514 6.514,2 12,2ZM7.748,14.551C7.748,16.073 8.998,17.366 10.724,17.8L10.724,19.654L13.276,19.654L13.276,17.8C15.002,17.366 16.252,16.073 16.252,14.551C16.252,12.187 14.007,11.626 12.204,11.175C10.333,10.724 9.449,10.384 9.449,9.449C9.449,8.53 10.614,7.748 12,7.748C13.386,7.748 14.551,8.53 14.551,9.449L16.252,9.449C16.252,7.927 15.002,6.634 13.276,6.2L13.276,4.346L10.724,4.346L10.724,6.2C8.998,6.634 7.748,7.927 7.748,9.449C7.748,11.813 9.993,12.374 11.796,12.825C13.667,13.276 14.551,13.616 14.551,14.551C14.551,15.47 13.386,16.252 12,16.252C10.614,16.252 9.449,15.47 9.449,14.551L7.748,14.551Z"/>
        </g>
    </g>
</svg>
