<?xml version="1.0" encoding="UTF-8" standalone="no"?>
<!DOCTYPE svg PUBLIC "-//W3C//DTD SVG 1.1//EN" "http://www.w3.org/Graphics/SVG/1.1/DTD/svg11.dtd">
<svg width="100%" height="100%" viewBox="0 0 296 296" version="1.1" xmlns="http://www.w3.org/2000/svg" xmlns:xlink="http://www.w3.org/1999/xlink" xml:space="preserve" xmlns:serif="http://www.serif.com/" style="fill-rule:evenodd;clip-rule:evenodd;stroke-linejoin:round;stroke-miterlimit:2;">
    <g transform="matrix(1,0,0,1,-2247.87,-362.175)">
        <g transform="matrix(14.7638,0,0,14.7638,2218.34,332.647)">
            <path d="M12,20C16.389,20 20,16.389 20,12C20,7.611 16.389,4 12,4C7.611,4 4,7.611 4,12C4,16.389 7.611,20 12,20M12,2C17.486,2 22,6.514 22,12C22,17.486 17.486,22 12,22C6.47,22 2,17.5 2,12C2,6.514 6.514,2 12,2M12.5,7L12.5,12.25L17,14.92L16.25,16.15L11,13L11,7L12.5,7Z" style="fill-rule:nonzero;"/>
        </g>
    </g>
</svg>
