<?xml version="1.0" encoding="UTF-8" standalone="no"?>
<!DOCTYPE svg PUBLIC "-//W3C//DTD SVG 1.1//EN" "http://www.w3.org/Graphics/SVG/1.1/DTD/svg11.dtd">
<svg width="100%" height="100%" viewBox="0 0 349 296" version="1.1" xmlns="http://www.w3.org/2000/svg" xmlns:xlink="http://www.w3.org/1999/xlink" xml:space="preserve" xmlns:serif="http://www.serif.com/" style="fill-rule:evenodd;clip-rule:evenodd;stroke-linejoin:round;stroke-miterlimit:2;">
    <g transform="matrix(1,0,0,1,-1463.34,-358.979)">
        <g transform="matrix(17.8955,0,0,17.8955,1409.65,287.397)">
            <path d="M21.1,12.5L22.5,13.91L15.97,20.5L12.5,17L13.9,15.59L15.97,17.67L21.1,12.5M10,17L13,20L3,20L3,18C3,15.79 6.58,14 11,14L12.89,14.11L10,17M11,4C13.194,4 15,5.806 15,8C15,10.194 13.194,12 11,12C8.806,12 7,10.194 7,8C7,5.806 8.806,4 11,4Z" style="fill-rule:nonzero;"/>
        </g>
    </g>
</svg>
